<svg width="125" height="31" viewBox="0 0 125 31" fill="none" xmlns="http://www.w3.org/2000/svg">
<path d="M1.79518 12.31V10H9.59318V12.31H10.7132V8.88H9.48118V0.199999H3.46118C3.46118 3.21 3.12518 6.598 1.86518 8.88H0.67518V12.31H1.79518ZM4.66518 1.32H8.30518V8.88H3.18118C4.16118 6.948 4.51118 3.966 4.66518 1.32ZM11.5105 6.64C11.5105 8.936 13.2745 10.168 15.0945 10.168C16.9285 10.168 18.6785 8.936 18.6785 6.64C18.6785 4.344 16.9285 3.112 15.0945 3.112C13.2745 3.112 11.5105 4.344 11.5105 6.64ZM17.5585 6.64C17.5585 8.194 16.4665 9.104 15.0945 9.104C13.7225 9.104 12.6305 8.194 12.6305 6.64C12.6305 5.086 13.7225 4.176 15.0945 4.176C16.4665 4.176 17.5585 5.086 17.5585 6.64ZM19.823 6.668C19.823 9.062 21.657 10.168 23.421 10.168C24.261 10.168 24.975 10.014 25.605 9.706V8.586C25.045 8.922 24.303 9.132 23.575 9.132C22.259 9.132 20.943 8.362 20.943 6.64C20.943 4.876 22.301 4.148 23.603 4.148C24.317 4.148 25.031 4.358 25.535 4.75V3.658C24.961 3.28 24.219 3.112 23.463 3.112C21.713 3.112 19.823 4.218 19.823 6.668ZM30.044 10V4.316H32.508V3.28H26.446V4.316H28.924V10H30.044ZM39.1708 8.6V5.968C39.1708 4.092 38.0368 3.112 36.2448 3.112C35.1388 3.112 34.2148 3.378 33.6828 3.56V4.652C34.2708 4.4 35.0968 4.148 36.1328 4.148C37.3648 4.148 38.0508 4.82 38.0508 5.828V6.066C37.4908 5.94 36.7768 5.856 36.1888 5.856C34.7468 5.856 33.1508 6.388 33.1508 8.124C33.1508 9.538 34.3268 10.168 35.5168 10.168C36.6088 10.168 37.4628 9.832 38.1348 9.272C38.3308 9.86 38.8208 10.084 39.3668 10.084C39.6468 10.084 39.9408 10.028 40.2068 9.93V9.02C40.0388 9.076 39.8568 9.118 39.6888 9.118C39.3948 9.118 39.1708 9.006 39.1708 8.6ZM34.2988 8.068C34.2988 7.088 35.3628 6.794 36.3428 6.794C36.8888 6.794 37.5748 6.892 38.0508 6.99V8.222C37.4628 8.852 36.6088 9.202 35.7548 9.202C35.0128 9.202 34.2988 8.852 34.2988 8.068ZM45.2021 10C46.6581 10 47.3721 9.244 47.3721 8.138C47.3721 7.298 46.8121 6.766 46.2661 6.584C46.7701 6.36 47.1621 5.8 47.1621 5.1C47.1621 3.91 46.2661 3.28 45.0901 3.28H41.4081V10H45.2021ZM42.5281 7.088H45.0901C45.6501 7.088 46.2521 7.27 46.2521 8.068C46.2521 8.81 45.7481 9.02 45.0481 9.02H42.5281V7.088ZM42.5281 4.26H44.9781C45.4541 4.26 46.0281 4.456 46.0281 5.212C46.0281 5.898 45.5661 6.122 44.9781 6.122H42.5281V4.26ZM50.198 10V7.116H51.514L53.978 10H55.294L52.438 6.626L54.986 3.28H53.684L51.556 6.08H50.198V3.28H49.078V10H50.198ZM61.8114 8.6V5.968C61.8114 4.092 60.6774 3.112 58.8854 3.112C57.7794 3.112 56.8554 3.378 56.3234 3.56V4.652C56.9114 4.4 57.7374 4.148 58.7734 4.148C60.0054 4.148 60.6914 4.82 60.6914 5.828V6.066C60.1314 5.94 59.4174 5.856 58.8294 5.856C57.3874 5.856 55.7914 6.388 55.7914 8.124C55.7914 9.538 56.9674 10.168 58.1574 10.168C59.2494 10.168 60.1034 9.832 60.7754 9.272C60.9714 9.86 61.4614 10.084 62.0074 10.084C62.2874 10.084 62.5814 10.028 62.8474 9.93V9.02C62.6794 9.076 62.4974 9.118 62.3294 9.118C62.0354 9.118 61.8114 9.006 61.8114 8.6ZM56.9394 8.068C56.9394 7.088 58.0034 6.794 58.9834 6.794C59.5294 6.794 60.2154 6.892 60.6914 6.99V8.222C60.1034 8.852 59.2494 9.202 58.3954 9.202C57.6534 9.202 56.9394 8.852 56.9394 8.068ZM70.769 4.568V1.978H69.705V4.568H67.115V5.632H69.705V8.222H70.769V5.632H73.359V4.568H70.769ZM78.0379 6.668C78.0379 9.062 79.8719 10.168 81.6359 10.168C82.4759 10.168 83.1899 10.014 83.8199 9.706V8.586C83.2599 8.922 82.5179 9.132 81.7899 9.132C80.4739 9.132 79.1579 8.362 79.1579 6.64C79.1579 4.876 80.5159 4.148 81.8179 4.148C82.5319 4.148 83.2459 4.358 83.7499 4.75V3.658C83.1759 3.28 82.4339 3.112 81.6779 3.112C79.9279 3.112 78.0379 4.218 78.0379 6.668ZM92.0249 6.836C92.0249 4.834 90.4709 3.56 88.7209 3.56C87.6709 3.56 86.7189 4.078 86.2429 4.82C86.5229 3.966 86.9009 3.056 87.8389 2.496C89.3789 1.6 90.4569 1.894 91.4229 1.208V0.0319998C90.4429 0.983999 89.1129 0.48 87.1809 1.67C85.9769 2.426 85.1089 3.98 85.1089 6.234C85.1089 8.782 86.5649 10.168 88.5949 10.168C90.6249 10.168 92.0249 8.936 92.0249 6.836ZM86.2289 6.864C86.2289 5.73 87.1669 4.624 88.5669 4.624C90.0369 4.624 90.9049 5.59 90.9049 6.864C90.9049 8.138 90.0369 9.104 88.5669 9.104C87.1529 9.104 86.2289 8.138 86.2289 6.864ZM93.1863 6.64C93.1863 8.936 94.9503 10.168 96.7703 10.168C98.6043 10.168 100.354 8.936 100.354 6.64C100.354 4.344 98.6043 3.112 96.7703 3.112C94.9503 3.112 93.1863 4.344 93.1863 6.64ZM99.2343 6.64C99.2343 8.194 98.1423 9.104 96.7703 9.104C95.3983 9.104 94.3063 8.194 94.3063 6.64C94.3063 5.086 95.3983 4.176 96.7703 4.176C98.1423 4.176 99.2343 5.086 99.2343 6.64ZM102.969 4.4V3.28H101.961V13.08H103.081V8.992C103.571 9.566 104.397 10.168 105.685 10.168C107.603 10.168 109.045 8.656 109.045 6.64C109.045 4.624 107.603 3.112 105.685 3.112C104.397 3.112 103.571 3.714 102.969 4.4ZM107.925 6.64C107.925 8.18 106.861 9.132 105.559 9.132C104.355 9.132 103.459 8.348 103.081 7.48V5.8C103.459 4.932 104.355 4.148 105.559 4.148C106.861 4.148 107.925 5.1 107.925 6.64ZM111.776 10V7.116H113.092L115.556 10H116.872L114.016 6.626L116.564 3.28H115.262L113.134 6.08H111.776V3.28H110.656V10H111.776ZM123.39 8.6V5.968C123.39 4.092 122.256 3.112 120.464 3.112C119.358 3.112 118.434 3.378 117.902 3.56V4.652C118.49 4.4 119.316 4.148 120.352 4.148C121.584 4.148 122.27 4.82 122.27 5.828V6.066C121.71 5.94 120.996 5.856 120.408 5.856C118.966 5.856 117.37 6.388 117.37 8.124C117.37 9.538 118.546 10.168 119.736 10.168C120.828 10.168 121.682 9.832 122.354 9.272C122.55 9.86 123.04 10.084 123.586 10.084C123.866 10.084 124.16 10.028 124.426 9.93V9.02C124.258 9.076 124.076 9.118 123.908 9.118C123.614 9.118 123.39 9.006 123.39 8.6ZM118.518 8.068C118.518 7.088 119.582 6.794 120.562 6.794C121.108 6.794 121.794 6.892 122.27 6.99V8.222C121.682 8.852 120.828 9.202 119.974 9.202C119.232 9.202 118.518 8.852 118.518 8.068ZM22.7727 17.48L20.4627 18.362V19.482L22.4647 18.726V25.88H20.4627V27H25.4187V25.88H23.6407V17.48H22.7727ZM27.0523 17.48L26.7443 22.59C27.4723 22.324 28.3683 22.142 29.2083 22.142C30.6923 22.142 32.0363 22.576 32.0363 24.13C32.0363 25.418 30.9443 26.076 29.3903 26.076C28.3683 26.076 27.2903 25.838 26.4783 25.404V26.524C27.3043 26.93 28.4243 27.168 29.5303 27.168C31.6023 27.168 33.2263 26.062 33.2263 24.13C33.2263 21.848 31.4063 21.078 29.6143 21.078C29.0543 21.078 28.4943 21.148 27.9903 21.288L28.1583 18.6H32.7643V17.48H27.0523ZM34.5578 22.24C34.5578 25.054 35.8738 27.168 38.7578 27.168C41.6558 27.168 42.9718 25.054 42.9718 22.24C42.9718 19.426 41.6558 17.312 38.7578 17.312C35.8738 17.312 34.5578 19.426 34.5578 22.24ZM41.7818 22.24C41.7818 24.62 40.8438 26.048 38.7578 26.048C36.6858 26.048 35.7478 24.62 35.7478 22.24C35.7478 19.86 36.6858 18.432 38.7578 18.432C40.8438 18.432 41.7818 19.86 41.7818 22.24ZM44.4015 22.24C44.4015 25.054 45.7175 27.168 48.6015 27.168C51.4995 27.168 52.8155 25.054 52.8155 22.24C52.8155 19.426 51.4995 17.312 48.6015 17.312C45.7175 17.312 44.4015 19.426 44.4015 22.24ZM51.6255 22.24C51.6255 24.62 50.6875 26.048 48.6015 26.048C46.5295 26.048 45.5915 24.62 45.5915 22.24C45.5915 19.86 46.5295 18.432 48.6015 18.432C50.6875 18.432 51.6255 19.86 51.6255 22.24ZM59.0616 21.4V20.28H58.0536V30.08H59.1736V25.992C59.6636 26.566 60.4896 27.168 61.7776 27.168C63.6956 27.168 65.1376 25.656 65.1376 23.64C65.1376 21.624 63.6956 20.112 61.7776 20.112C60.4896 20.112 59.6636 20.714 59.0616 21.4ZM64.0176 23.64C64.0176 25.18 62.9536 26.132 61.6516 26.132C60.4476 26.132 59.5516 25.348 59.1736 24.48V22.8C59.5516 21.932 60.4476 21.148 61.6516 21.148C62.9536 21.148 64.0176 22.1 64.0176 23.64ZM69.3445 25.726L66.8105 20.28H65.6205L68.8125 27.014L68.5605 27.63C68.1265 28.722 67.5805 29.268 66.8245 29.268C66.6285 29.268 66.4325 29.24 66.2365 29.184V30.15C66.4885 30.22 66.7265 30.248 66.9645 30.248C67.9445 30.248 68.7985 29.632 69.4985 28.008L72.8025 20.28H71.6125L69.3445 25.726ZM80.6157 23.836C80.6157 21.834 79.0617 20.56 77.3117 20.56C76.2617 20.56 75.3097 21.078 74.8337 21.82C75.1137 20.966 75.4917 20.056 76.4297 19.496C77.9697 18.6 79.0477 18.894 80.0137 18.208V17.032C79.0337 17.984 77.7037 17.48 75.7717 18.67C74.5677 19.426 73.6997 20.98 73.6997 23.234C73.6997 25.782 75.1557 27.168 77.1857 27.168C79.2157 27.168 80.6157 25.936 80.6157 23.836ZM74.8197 23.864C74.8197 22.73 75.7577 21.624 77.1577 21.624C78.6277 21.624 79.4957 22.59 79.4957 23.864C79.4957 25.138 78.6277 26.104 77.1577 26.104C75.7437 26.104 74.8197 25.138 74.8197 23.864ZM84.4961 21.316H87.2261V27H88.3461V20.28H83.4041C83.2781 23.892 82.8861 26.16 81.6961 26.16C81.5561 26.16 81.4021 26.132 81.2481 26.076V26.958C81.5421 27.07 81.8081 27.112 82.0601 27.112C83.7961 27.112 84.2721 24.76 84.4961 21.316ZM89.9529 23.64C89.9529 26.034 91.6889 27.168 93.6769 27.168C94.5589 27.168 95.4409 27 96.0569 26.678V25.586C95.4829 25.908 94.6709 26.132 93.8449 26.132C92.4869 26.132 91.2129 25.544 91.0729 24.13H96.4209C96.8409 22.226 95.8889 20.112 93.2989 20.112C91.7029 20.112 89.9529 21.288 89.9529 23.64ZM95.4269 23.15H91.0729C91.1569 21.834 92.2209 21.148 93.3689 21.148C95.0769 21.148 95.5249 22.436 95.4269 23.15ZM103.111 18.656V17.648C102.411 18.11 101.837 18.264 101.151 18.264C100.465 18.264 99.8915 18.11 99.1915 17.648V18.656C99.8215 19.104 100.479 19.244 101.151 19.244C101.823 19.244 102.481 19.104 103.111 18.656ZM99.0095 27L103.125 22.086V27H104.245V20.28H103.293L99.1775 25.194V20.28H98.0575V27H99.0095Z" fill="#CF9E23"/>
</svg>
