<svg width="76" height="68" viewBox="0 0 76 68" fill="none" xmlns="http://www.w3.org/2000/svg">
<path d="M1.05969 41.17C1.04569 44.432 3.73369 46.168 6.19769 46.168C7.24769 46.168 8.22769 45.93 9.03969 45.51V44.334C8.36769 44.81 7.45769 45.048 6.44969 45.048C4.41969 45.048 2.23569 43.788 2.24969 41.17C2.26369 38.37 4.37769 37.152 6.40769 37.152C7.33169 37.152 8.25569 37.39 8.96969 37.866V36.69C8.14369 36.256 7.19169 36.032 6.21169 36.032C3.66369 36.032 1.07369 37.768 1.05969 41.17ZM16.1405 44.6V41.968C16.1405 40.092 15.0065 39.112 13.2145 39.112C12.1085 39.112 11.1845 39.378 10.6525 39.56V40.652C11.2405 40.4 12.0665 40.148 13.1025 40.148C14.3345 40.148 15.0205 40.82 15.0205 41.828V42.066C14.4605 41.94 13.7465 41.856 13.1585 41.856C11.7165 41.856 10.1205 42.388 10.1205 44.124C10.1205 45.538 11.2965 46.168 12.4865 46.168C13.5785 46.168 14.4325 45.832 15.1045 45.272C15.3005 45.86 15.7905 46.084 16.3365 46.084C16.6165 46.084 16.9105 46.028 17.1765 45.93V45.02C17.0085 45.076 16.8265 45.118 16.6585 45.118C16.3645 45.118 16.1405 45.006 16.1405 44.6ZM11.2685 44.068C11.2685 43.088 12.3325 42.794 13.3125 42.794C13.8585 42.794 14.5445 42.892 15.0205 42.99V44.222C14.4325 44.852 13.5785 45.202 12.7245 45.202C11.9825 45.202 11.2685 44.852 11.2685 44.068ZM19.4418 46V40.932L21.6258 44.25H22.4658L24.6498 40.932V46H25.7138V39.28H24.4958L22.0458 43.004L19.5958 39.28H18.3778V46H19.4418ZM27.322 42.64C27.322 44.936 29.086 46.168 30.906 46.168C32.74 46.168 34.49 44.936 34.49 42.64C34.49 40.344 32.74 39.112 30.906 39.112C29.086 39.112 27.322 40.344 27.322 42.64ZM33.37 42.64C33.37 44.194 32.278 45.104 30.906 45.104C29.534 45.104 28.442 44.194 28.442 42.64C28.442 41.086 29.534 40.176 30.906 40.176C32.278 40.176 33.37 41.086 33.37 42.64ZM39.8905 46C41.3465 46 42.0605 45.244 42.0605 44.138C42.0605 43.298 41.5005 42.766 40.9545 42.584C41.4585 42.36 41.8505 41.8 41.8505 41.1C41.8505 39.91 40.9545 39.28 39.7785 39.28H36.0965V46H39.8905ZM37.2165 43.088H39.7785C40.3385 43.088 40.9405 43.27 40.9405 44.068C40.9405 44.81 40.4365 45.02 39.7365 45.02H37.2165V43.088ZM37.2165 40.26H39.6665C40.1425 40.26 40.7165 40.456 40.7165 41.212C40.7165 41.898 40.2545 42.122 39.6665 42.122H37.2165V40.26ZM46.9585 46C48.5965 46 49.5625 45.062 49.5625 43.816C49.5625 42.57 48.5965 41.632 46.9585 41.632H44.8865V39.28H43.7665V46H46.9585ZM44.8865 42.64H46.8185C47.7985 42.64 48.4285 43.018 48.4285 43.816C48.4285 44.614 47.7985 44.992 46.8185 44.992H44.8865V42.64ZM51.9845 46V39.28H50.8645V46H51.9845ZM57.8554 46C59.3114 46 60.0254 45.244 60.0254 44.138C60.0254 43.298 59.4654 42.766 58.9194 42.584C59.4234 42.36 59.8154 41.8 59.8154 41.1C59.8154 39.91 58.9194 39.28 57.7434 39.28H54.0614V46H57.8554ZM55.1814 43.088H57.7434C58.3034 43.088 58.9054 43.27 58.9054 44.068C58.9054 44.81 58.4014 45.02 57.7014 45.02H55.1814V43.088ZM55.1814 40.26H57.6314C58.1074 40.26 58.6814 40.456 58.6814 41.212C58.6814 41.898 58.2194 42.122 57.6314 42.122H55.1814V40.26ZM61.2693 42.64C61.2693 44.936 63.0333 46.168 64.8533 46.168C66.6873 46.168 68.4373 44.936 68.4373 42.64C68.4373 40.344 66.6873 39.112 64.8533 39.112C63.0333 39.112 61.2693 40.344 61.2693 42.64ZM67.3173 42.64C67.3173 44.194 66.2253 45.104 64.8533 45.104C63.4813 45.104 62.3893 44.194 62.3893 42.64C62.3893 41.086 63.4813 40.176 64.8533 40.176C66.2253 40.176 67.3173 41.086 67.3173 42.64ZM74.9604 44.194C74.9604 43.326 74.3304 42.752 73.5744 42.556C74.3304 42.388 74.8204 41.856 74.8204 41.044C74.8204 39.868 73.8544 39.098 71.9784 39.098C71.0824 39.098 70.2424 39.308 69.5704 39.616V40.666C70.1864 40.358 71.0544 40.134 71.8524 40.134C72.9024 40.134 73.7004 40.456 73.7004 41.198C73.7004 41.842 73.1124 42.066 72.3564 42.066H70.8864V43.102H72.3564C73.0284 43.102 73.8404 43.242 73.8404 44.068C73.8404 44.936 72.8604 45.132 71.7964 45.132C70.9844 45.132 70.0324 44.894 69.4584 44.586V45.65C70.0884 45.958 70.9844 46.168 71.9364 46.168C73.7984 46.168 74.9604 45.468 74.9604 44.194ZM5.03334 57.162V54.32H10.6473V53.2H3.85734V63H7.63734C9.44334 63 11.4033 62.482 11.4033 60.088C11.4033 57.694 9.44334 57.162 7.63734 57.162H5.03334ZM5.03334 61.88V58.282H7.69334C8.92534 58.282 10.2133 58.478 10.2133 60.088C10.2133 61.684 8.93934 61.88 7.69334 61.88H5.03334ZM12.4676 59.64C12.4676 62.034 14.2036 63.168 16.1916 63.168C17.0736 63.168 17.9556 63 18.5716 62.678V61.586C17.9976 61.908 17.1856 62.132 16.3596 62.132C15.0016 62.132 13.7276 61.544 13.5876 60.13H18.9356C19.3556 58.226 18.4036 56.112 15.8136 56.112C14.2176 56.112 12.4676 57.288 12.4676 59.64ZM17.9416 59.15H13.5876C13.6716 57.834 14.7356 57.148 15.8836 57.148C17.5916 57.148 18.0396 58.436 17.9416 59.15ZM20.1101 59.668C20.1101 62.062 21.9441 63.168 23.7081 63.168C24.5481 63.168 25.2621 63.014 25.8921 62.706V61.586C25.3321 61.922 24.5901 62.132 23.8621 62.132C22.5461 62.132 21.2301 61.362 21.2301 59.64C21.2301 57.876 22.5881 57.148 23.8901 57.148C24.6041 57.148 25.3181 57.358 25.8221 57.75V56.658C25.2481 56.28 24.5061 56.112 23.7501 56.112C22.0001 56.112 20.1101 57.218 20.1101 59.668ZM28.6511 63V57.316H32.5431V63H33.6631V56.28H27.5311V63H28.6511ZM38.1142 57.316H40.8442V63H41.9642V56.28H37.0222C36.8962 59.892 36.5042 62.16 35.3142 62.16C35.1742 62.16 35.0202 62.132 34.8662 62.076V62.958C35.1602 63.07 35.4262 63.112 35.6782 63.112C37.4142 63.112 37.8902 60.76 38.1142 57.316ZM49.4931 61.6V58.968C49.4931 57.092 48.3591 56.112 46.5671 56.112C45.4611 56.112 44.5371 56.378 44.0051 56.56V57.652C44.5931 57.4 45.4191 57.148 46.4551 57.148C47.6871 57.148 48.3731 57.82 48.3731 58.828V59.066C47.8131 58.94 47.0991 58.856 46.5111 58.856C45.0691 58.856 43.4731 59.388 43.4731 61.124C43.4731 62.538 44.6491 63.168 45.8391 63.168C46.9311 63.168 47.7851 62.832 48.4571 62.272C48.6531 62.86 49.1431 63.084 49.6891 63.084C49.9691 63.084 50.2631 63.028 50.5291 62.93V62.02C50.3611 62.076 50.1791 62.118 50.0111 62.118C49.7171 62.118 49.4931 62.006 49.4931 61.6ZM44.6211 61.068C44.6211 60.088 45.6851 59.794 46.6651 59.794C47.2111 59.794 47.8971 59.892 48.3731 59.99V61.222C47.7851 61.852 46.9311 62.202 46.0771 62.202C45.3351 62.202 44.6211 61.852 44.6211 61.068ZM54.2159 63V57.316H56.6799V56.28H50.6179V57.316H53.0959V63H54.2159ZM59.071 63V60.158H62.963V63H64.083V56.28H62.963V59.122H59.071V56.28H57.951V63H59.071ZM65.6922 59.64C65.6922 61.936 67.4562 63.168 69.2762 63.168C71.1102 63.168 72.8602 61.936 72.8602 59.64C72.8602 57.344 71.1102 56.112 69.2762 56.112C67.4562 56.112 65.6922 57.344 65.6922 59.64ZM71.7402 59.64C71.7402 61.194 70.6482 62.104 69.2762 62.104C67.9042 62.104 66.8122 61.194 66.8122 59.64C66.8122 58.086 67.9042 57.176 69.2762 57.176C70.6482 57.176 71.7402 58.086 71.7402 59.64Z" fill="#BABABA"/>
<path d="M49 10.5C49 16.6026 41.685 29.0748 39.5 29.0748C37.315 29.0748 30 16.589 30 10.5C30 7.98044 31.0009 5.56408 32.7825 3.78249C34.5641 2.00089 36.9804 1 39.5 1C42.0196 1 44.4359 2.00089 46.2175 3.78249C47.9991 5.56408 49 7.98044 49 10.5Z" stroke="#C4C4C4" stroke-linejoin="round"/>
<path d="M39.4866 13.6805C41.4929 13.6805 43.1192 12.0562 43.1192 10.0524C43.1192 8.04868 41.4929 6.42432 39.4866 6.42432C37.4804 6.42432 35.854 8.04868 35.854 10.0524C35.854 12.0562 37.4804 13.6805 39.4866 13.6805Z" stroke="#C4C4C4" stroke-linejoin="round"/>
</svg>
