<svg width="21" height="30" viewBox="0 0 21 30" fill="none" xmlns="http://www.w3.org/2000/svg">
<path d="M20 10.5C20 16.6026 12.685 29.0748 10.5 29.0748C8.315 29.0748 1 16.589 1 10.5C1 7.98044 2.00089 5.56408 3.78249 3.78249C5.56408 2.00089 7.98044 1 10.5 1C13.0196 1 15.4359 2.00089 17.2175 3.78249C18.9991 5.56408 20 7.98044 20 10.5Z" stroke="#C4C4C4" stroke-linejoin="round"/>
<path d="M10.4866 13.6805C12.4929 13.6805 14.1192 12.0562 14.1192 10.0524C14.1192 8.04868 12.4929 6.42432 10.4866 6.42432C8.48038 6.42432 6.854 8.04868 6.854 10.0524C6.854 12.0562 8.48038 13.6805 10.4866 13.6805Z" stroke="#C4C4C4" stroke-linejoin="round"/>
</svg>
