<svg width="24" height="24" viewBox="0 0 24 24" fill="none" xmlns="http://www.w3.org/2000/svg">
<path fill-rule="evenodd" clip-rule="evenodd" d="M23.266 22.4732L17.6925 17.1014C21.5977 13.2936 21.7167 7.18111 17.9625 3.23326C14.2083 -0.714592 7.91205 -1.098 3.67739 2.36336C-0.557263 5.82473 -1.2288 11.9035 2.15379 16.1552C5.53638 20.4068 11.7737 21.3236 16.3052 18.2354L21.9872 23.7416C22.3437 24.0636 22.8992 24.0541 23.2438 23.7202C23.5883 23.3863 23.5981 22.8479 23.266 22.5024V22.4732ZM1.96582 10.0853C1.96582 5.5658 5.7466 1.90198 10.4104 1.90198C15.0743 1.90198 18.855 5.5658 18.855 10.0853C18.855 14.6049 15.0743 18.2687 10.4104 18.2687C5.7466 18.2687 1.96582 14.6049 1.96582 10.0853Z" fill="white"/>
</svg>
